<?xml version="1.0" standalone="no"?>
<!DOCTYPE svg PUBLIC "-//W3C//DTD SVG 20010904//EN"
 "http://www.w3.org/TR/2001/REC-SVG-20010904/DTD/svg10.dtd">
<svg version="1.0" xmlns="http://www.w3.org/2000/svg"
 width="768.000000pt" height="1024.000000pt" viewBox="0 0 768.000000 1024.000000"
 preserveAspectRatio="xMidYMid meet">
<metadata>
Created by potrace 1.16, written by Peter Selinger 2001-2019
</metadata>
<g transform="translate(0.000000,1024.000000) scale(0.100000,-0.100000)"
fill="#000000" stroke="none">
<path d="M4063 9202 c-13 -2 -23 -8 -23 -14 0 -6 -8 -8 -19 -5 -10 2 -26 0
-35 -5 -11 -6 -21 -6 -29 0 -7 6 -23 10 -37 10 -14 0 -63 3 -109 6 -63 4 -90
2 -106 -8 -11 -7 -47 -19 -80 -27 -33 -7 -69 -18 -79 -25 -11 -8 -30 -11 -42
-8 -12 3 -32 1 -43 -6 -13 -6 -21 -7 -21 -1 0 5 -8 10 -17 10 -10 0 -43 2 -73
6 -40 4 -71 1 -114 -13 -39 -13 -53 -21 -42 -25 19 -8 74 2 82 14 7 12 44 11
44 -1 0 -5 -4 -11 -10 -11 -5 -1 -14 -2 -18 -3 -25 -4 -122 -51 -122 -59 0 -5
9 -7 21 -4 39 10 13 -18 -30 -32 -37 -12 -44 -11 -61 4 -12 11 -20 13 -25 6
-3 -6 -1 -11 6 -11 8 0 8 -4 -1 -15 -7 -9 -19 -14 -25 -11 -7 2 -16 1 -21 -4
-5 -4 -27 -13 -48 -20 -35 -11 -93 -57 -167 -132 -14 -15 -41 -30 -59 -33 -40
-7 -52 -14 -45 -25 3 -5 -7 -10 -22 -12 -16 -2 -27 -8 -26 -14 1 -5 -14 -18
-33 -29 -21 -11 -34 -26 -34 -38 0 -13 -5 -17 -15 -13 -9 3 -15 0 -15 -10 0
-8 -13 -32 -28 -52 -16 -20 -34 -55 -41 -77 -8 -22 -19 -47 -25 -55 -24 -30
-38 -88 -27 -109 6 -11 11 -29 11 -40 0 -12 6 -30 12 -41 10 -16 10 -22 -4
-32 -24 -18 -24 -115 -1 -178 3 -8 7 -46 8 -85 2 -38 13 -107 24 -153 12 -46
21 -102 20 -125 -2 -57 36 -208 55 -223 9 -6 14 -18 10 -27 -4 -11 2 -18 19
-22 28 -7 57 -44 83 -101 27 -64 99 -327 117 -433 10 -61 10 -65 -12 -82 -13
-11 -19 -19 -15 -20 14 -1 -37 -21 -76 -30 -30 -7 -28 -8 18 -5 39 2 59 9 78
27 29 27 39 19 50 -41 16 -92 55 -191 110 -277 19 -29 49 -83 67 -120 19 -38
48 -95 66 -128 17 -33 31 -67 31 -76 0 -10 6 -19 13 -22 9 -3 9 -9 0 -25 -10
-16 -9 -23 3 -33 8 -7 12 -20 8 -31 -4 -14 0 -21 15 -25 11 -3 19 -9 16 -13
-3 -5 -1 -19 4 -33 13 -34 3 -65 -23 -70 -20 -3 -20 -4 -1 -11 11 -4 26 -10
33 -12 18 -5 15 -34 -4 -34 -8 0 -12 -5 -9 -11 4 -6 14 -8 22 -5 11 4 13 1 8
-14 -6 -18 -4 -19 19 -10 15 5 26 6 26 1 0 -5 -5 -11 -11 -13 -16 -5 1 -38 21
-38 9 0 31 -7 49 -16 17 -9 39 -13 47 -10 20 8 60 -19 44 -29 -6 -4 -19 -1
-28 6 -13 10 -12 8 2 -9 11 -12 25 -21 32 -20 6 2 26 -12 43 -29 36 -38 46
-40 63 -14 12 19 12 19 29 0 9 -10 33 -26 53 -34 20 -8 36 -22 36 -30 0 -9 10
-15 25 -15 14 0 25 -5 25 -10 0 -22 51 -31 106 -18 30 7 54 16 54 20 0 5 13 8
29 8 17 0 33 5 36 10 4 6 10 8 14 5 5 -2 17 2 27 11 18 14 18 15 -3 9 -13 -4
-23 -2 -23 3 0 14 21 29 50 37 30 8 80 49 80 67 0 7 31 47 69 88 37 41 77 93
88 115 12 22 37 57 57 78 34 36 56 88 56 134 0 13 16 40 35 62 19 21 35 45 35
54 0 9 5 19 10 22 6 3 10 17 10 31 0 13 4 24 10 24 5 0 26 34 45 76 20 42 47
91 59 108 13 17 27 41 30 53 4 12 25 58 47 103 21 44 39 93 38 108 0 24 -3 22
-20 -18 -26 -62 -35 -75 -49 -72 -6 1 -9 -2 -5 -7 3 -6 -2 -27 -11 -48 -9 -22
-18 -32 -21 -25 -3 8 0 19 6 25 6 6 11 17 11 25 0 12 -3 12 -15 2 -18 -15 -20
-1 -3 35 12 27 33 33 41 13 4 -8 6 -7 6 3 2 27 -23 41 -53 29 -18 -7 -26 -17
-26 -35 0 -15 -9 -31 -25 -41 -20 -13 -25 -24 -25 -59 0 -28 6 -50 17 -60 16
-16 16 -18 -1 -27 -11 -6 -15 -16 -11 -29 8 -25 -39 -91 -59 -83 -8 3 -16 -4
-20 -19 -3 -13 -17 -36 -31 -51 -14 -15 -25 -31 -25 -35 0 -4 -11 -13 -25 -19
-14 -6 -25 -16 -25 -22 0 -5 -5 -10 -11 -10 -6 0 -33 -23 -59 -51 -40 -42 -55
-52 -84 -53 -20 -1 -45 -10 -59 -23 -18 -15 -28 -18 -36 -10 -7 7 -12 6 -17
-6 -3 -9 -15 -17 -25 -17 -10 0 -19 -5 -19 -11 0 -8 -4 -8 -14 0 -11 9 -23 8
-52 -4 -28 -12 -45 -13 -73 -5 -20 5 -61 10 -92 10 -31 0 -59 3 -62 7 -4 3
-19 8 -33 9 -14 2 -47 14 -74 28 -28 15 -56 23 -69 19 -13 -3 -21 -1 -21 7 0
7 -7 10 -15 6 -8 -3 -21 1 -29 9 -8 8 -22 15 -30 15 -9 0 -16 5 -16 10 0 6 -6
10 -13 10 -15 0 -43 25 -72 63 -11 15 -25 27 -32 27 -7 0 -13 7 -13 15 0 9 -7
18 -15 21 -8 4 -15 11 -15 18 0 6 -14 25 -30 43 -21 23 -34 30 -52 27 l-23 -6
23 21 c20 18 21 20 5 25 -14 4 -24 33 -43 118 -16 70 -32 118 -42 127 -22 19
-23 57 -2 65 22 8 24 8 22 -6 -5 -22 34 -20 58 3 l24 22 0 -25 c0 -13 11 -56
23 -94 13 -38 22 -74 20 -81 -2 -6 1 -14 6 -17 7 -5 7 -15 1 -32 -7 -17 -7
-23 0 -19 6 3 10 -2 10 -11 0 -18 49 -88 56 -81 3 2 0 16 -5 30 -7 18 -7 27 2
30 9 3 9 9 0 26 -7 11 -13 27 -13 35 0 16 31 31 39 19 3 -5 19 -8 34 -8 30 1
83 -34 56 -36 -8 -1 4 -5 26 -9 22 -5 44 -4 50 1 8 8 -5 13 -27 11 -11 -2 -30
27 -24 36 3 5 33 5 67 1 35 -4 81 -5 103 -3 23 3 82 6 131 8 50 2 117 8 150
14 33 6 84 13 112 16 29 3 66 12 82 21 17 8 39 15 51 15 11 0 32 7 45 16 13 9
29 13 35 9 6 -4 17 -2 25 5 9 8 15 8 20 0 4 -6 15 -8 26 -5 20 7 22 1 19 -48
-1 -16 4 -29 14 -33 18 -7 50 21 41 35 -7 12 53 152 72 168 10 7 11 13 4 18
-19 11 -12 32 12 31 17 -1 22 5 22 24 0 19 -5 25 -22 24 -13 0 -23 4 -23 9 0
14 -46 54 -70 62 -11 3 -20 10 -20 15 0 5 -9 12 -20 15 -11 3 -20 11 -20 17 0
11 -27 47 -76 100 l-34 37 33 3 c17 2 31 8 29 13 -2 6 -12 9 -24 7 -11 -2 -18
0 -15 5 3 5 -28 19 -69 31 -91 27 -137 69 -186 169 -39 80 -45 167 -16 218 10
17 20 37 23 45 13 34 70 56 185 73 136 20 249 21 342 3 77 -15 102 -33 119
-84 11 -34 8 -150 -7 -227 -4 -23 -3 -26 5 -15 13 19 30 100 32 160 3 51 14
80 32 80 14 0 21 -98 22 -313 0 -109 3 -147 12 -147 8 0 10 -7 6 -17 -6 -16
-5 -16 10 -4 18 15 23 51 7 51 -5 0 -10 -4 -10 -10 0 -5 -4 -10 -8 -10 -14 0
0 75 15 83 9 6 13 17 9 32 -3 13 -2 27 4 30 6 4 5 13 -2 25 -10 15 -10 27 0
53 7 18 12 51 12 72 0 42 31 80 75 91 14 3 25 14 27 27 2 15 12 24 33 28 24 5
27 7 13 13 -14 7 -17 20 -16 67 1 32 6 59 11 59 5 0 7 7 3 15 -3 9 3 34 13 58
42 95 46 125 24 201 -4 13 -7 15 -13 6 -5 -8 -9 -8 -13 4 -4 10 -1 16 7 16 12
0 12 7 1 45 -8 25 -21 60 -29 77 -8 18 -19 50 -25 71 -5 21 -24 51 -42 68 -36
33 -32 48 8 30 21 -10 28 -9 34 1 15 22 10 38 -11 38 -15 0 -20 7 -20 26 0 15
-8 33 -17 40 -16 12 -15 13 12 14 17 1 24 4 17 7 -9 3 6 18 37 39 49 33 71 60
71 86 0 7 -9 -1 -20 -19 -11 -18 -41 -43 -69 -58 -79 -39 -82 -31 -14 39 28
29 42 51 35 54 -15 5 -16 32 -1 32 5 0 7 5 4 10 -3 6 -3 16 2 23 16 25 32 104
32 157 0 47 -2 51 -10 30 -6 -14 -12 -42 -14 -64 -5 -54 -15 -58 -15 -5 0 26
-7 53 -16 65 -15 18 -15 18 -9 -11 3 -16 7 -46 8 -65 2 -39 5 -38 -88 -25 -77
10 -81 12 -61 34 12 13 14 20 5 23 -9 3 -9 9 0 27 10 18 18 21 38 16 18 -4 24
-2 21 7 -3 7 -11 13 -19 13 -8 0 -16 2 -19 5 -17 17 -79 37 -91 29 -11 -7 -11
-9 2 -9 27 0 29 -26 4 -40 -20 -11 -27 -11 -40 0 -8 7 -12 16 -9 21 3 5 -4 9
-15 9 -12 0 -24 11 -33 30 -7 17 -16 30 -20 30 -5 0 -8 6 -8 14 0 8 -9 21 -21
29 -15 11 -17 16 -7 20 10 4 11 8 0 23 -6 11 -15 26 -19 34 -3 8 -12 19 -20
23 -7 4 -13 17 -13 27 0 22 -15 27 -26 9 -4 -6 -13 1 -24 18 -11 15 -28 39
-40 53 l-21 25 3 -32 c4 -28 2 -31 -13 -22 -10 5 -16 15 -13 23 3 7 -4 23 -14
36 -16 20 -31 25 -87 28 -49 3 -66 1 -61 -7 8 -13 -15 -15 -29 -3 -6 4 -20 6
-32 4z m253 -736 c7 -11 17 -17 20 -13 11 10 34 -13 34 -34 0 -25 67 -99 90
-99 10 0 28 -9 41 -19 23 -19 24 -23 22 -163 -3 -151 6 -217 40 -283 34 -66
37 -74 37 -90 0 -19 39 -97 54 -108 6 -5 -2 -6 -19 -2 -71 14 -246 34 -310 36
-67 1 -68 2 -25 9 25 4 49 5 54 2 5 -3 6 1 1 8 -6 10 1 12 33 6 35 -5 42 -3
42 10 0 10 -5 14 -15 10 -8 -3 -15 0 -15 6 0 7 -5 6 -15 -2 -11 -9 -19 -10
-26 -3 -14 14 23 27 51 18 11 -3 20 -2 20 3 0 15 -25 18 -187 21 -105 2 -153
-1 -153 -8 0 -6 -3 -10 -7 -9 -5 1 -29 -1 -55 -6 -36 -5 -56 -16 -91 -51 -25
-25 -54 -45 -66 -45 -11 0 -21 -5 -21 -10 0 -6 -10 -8 -24 -4 -14 3 -31 2 -37
-2 -17 -10 -109 -11 -109 -2 0 5 -11 8 -25 8 -14 0 -29 8 -35 20 -6 11 -15 18
-20 15 -6 -3 -7 1 -4 9 7 19 -16 22 -34 4 -9 -9 -13 -7 -19 8 -4 10 -12 25
-19 31 -14 15 -119 28 -219 28 -76 0 -194 -30 -202 -52 -8 -21 -25 -15 -18 7
5 16 3 19 -12 13 -31 -12 -93 -75 -93 -95 0 -10 -6 -19 -12 -19 -7 -1 3 -4 22
-8 33 -6 29 -8 -54 -31 -109 -31 -121 -39 -112 -73 5 -20 13 -26 38 -29 36 -3
42 -13 57 -88 23 -107 44 -175 63 -195 17 -19 18 -19 9 11 -5 17 -14 40 -19
51 -14 26 -36 148 -34 191 1 50 21 101 47 118 44 29 375 69 375 45 0 -6 -12
-11 -27 -11 -24 -1 -25 -2 -10 -11 35 -20 18 -35 -55 -47 -98 -17 -159 -39
-183 -66 -13 -15 -32 -23 -52 -24 -41 -1 -53 -8 -53 -33 0 -15 7 -19 31 -19
l31 0 -22 -18 c-22 -18 -20 -18 111 -18 74 1 136 4 139 8 5 6 230 19 230 13 0
-1 -12 -10 -26 -20 -15 -9 -23 -12 -19 -5 5 8 -8 10 -50 7 -32 -2 -61 -10 -65
-17 -7 -11 -13 -10 -34 4 -22 14 -26 14 -26 1 0 -19 -41 -29 -89 -21 -49 8
-138 -4 -119 -15 7 -5 33 -9 58 -10 88 -2 100 -15 20 -21 -141 -9 -118 -23 38
-23 133 0 155 3 237 29 56 18 90 25 93 18 2 -6 10 -8 18 -5 8 3 14 -1 14 -11
0 -9 8 -16 18 -17 15 0 15 -1 -2 -8 -12 -5 -15 -10 -9 -14 28 -17 68 82 67
166 0 47 3 62 9 51 16 -28 1 -138 -26 -197 -28 -61 -83 -126 -131 -156 -24
-15 -205 -61 -240 -61 -3 0 -6 -4 -6 -10 0 -5 12 -10 28 -10 21 0 24 2 12 10
-8 5 -10 10 -5 10 6 0 15 -4 20 -9 6 -5 23 -11 39 -13 16 -2 31 -8 33 -14 5
-15 -108 -131 -132 -136 -12 -2 -19 -10 -17 -20 3 -19 -14 -33 -23 -18 -10 16
-36 12 -51 -7 -13 -17 -13 -17 -14 1 0 13 -4 16 -17 11 -10 -5 -38 -13 -63
-20 -34 -9 -46 -18 -48 -34 -2 -11 -10 -21 -18 -21 -8 0 -14 -7 -14 -15 0 -8
-4 -15 -9 -15 -5 0 -9 -16 -9 -35 0 -19 4 -35 9 -35 13 0 11 -67 -1 -75 -6 -4
-8 -15 -5 -25 3 -10 0 -22 -6 -26 -8 -4 -9 -3 -5 4 4 6 -2 20 -14 32 -11 11
-20 29 -20 41 0 11 -7 28 -16 36 -9 9 -14 26 -11 40 2 13 2 21 -1 18 -7 -7
-28 67 -42 145 -5 30 -14 73 -19 95 -5 22 -12 56 -16 75 -4 19 -16 64 -28 98
-18 58 -19 71 -9 138 9 54 9 88 1 124 -13 60 -8 77 23 83 13 2 -17 5 -67 6
-88 1 -134 14 -143 39 -3 9 15 12 65 12 104 0 110 4 111 57 1 25 8 56 17 69 8
13 15 30 15 38 0 8 3 16 8 18 12 5 55 105 49 116 -4 5 -2 24 4 43 12 43 18
129 7 123 -4 -3 -8 2 -8 10 0 8 4 17 10 21 5 3 8 11 6 18 -1 7 -1 9 1 5 2 -4
11 -4 19 -1 8 3 14 1 14 -5 0 -6 25 -9 60 -8 33 1 60 -1 60 -5 0 -3 25 -14 55
-24 41 -15 52 -22 44 -32 -16 -18 -1 -37 17 -22 11 9 14 7 14 -10 0 -19 4 -21
23 -16 12 4 26 11 32 16 5 5 21 9 36 9 14 0 46 7 70 15 24 9 49 13 56 11 7 -3
37 6 67 20 46 21 60 23 96 15 47 -11 187 1 234 19 16 6 45 28 64 48 18 20 30
30 26 22 -7 -13 -5 -13 9 -1 9 7 15 17 12 21 -2 4 5 16 16 26 12 11 33 43 46
72 14 28 29 52 33 52 4 0 12 11 18 24 6 13 24 32 41 42 20 12 29 25 28 38 -1
15 3 20 15 18 12 -2 16 2 12 13 -4 8 -1 15 6 15 7 0 27 13 46 29 31 28 39 30
105 28 57 -2 73 -6 85 -21z m-515 -989 c8 -7 37 -52 63 -101 25 -49 65 -113
86 -144 22 -30 40 -61 40 -68 0 -7 20 -33 45 -59 25 -26 48 -60 52 -76 3 -16
12 -29 19 -29 8 0 14 -4 14 -10 0 -5 7 -10 15 -10 8 0 15 -4 15 -10 0 -5 7
-10 16 -10 12 0 15 -6 11 -22 -8 -28 14 -78 45 -104 20 -17 25 -30 23 -60 l-1
-39 -150 -8 c-157 -8 -178 -10 -259 -21 -30 -4 -78 -1 -120 7 -102 20 -247 21
-333 3 -84 -18 -92 -19 -92 -8 0 9 95 82 125 96 19 9 18 10 -6 13 -31 5 -47
42 -25 58 7 6 16 27 20 48 6 32 11 37 34 37 38 0 48 10 56 53 4 22 21 54 41
76 19 21 32 40 30 43 -3 2 13 33 35 69 46 74 85 154 99 206 12 41 47 83 70 83
9 0 23 -6 32 -13z m-216 -797 c10 -11 26 -18 35 -15 9 3 25 -1 35 -9 16 -11
21 -11 33 0 18 19 52 18 80 -2 21 -15 25 -15 41 0 19 18 76 22 86 6 4 -6 16
-4 31 6 22 15 26 15 48 1 21 -14 25 -14 40 1 16 16 18 16 27 -1 8 -14 14 -16
25 -6 11 9 14 7 14 -13 0 -29 -41 -71 -66 -67 -11 1 -30 -3 -44 -8 -27 -11
-50 -7 -50 10 0 5 -8 3 -18 -7 -13 -11 -44 -18 -93 -21 -41 -3 -81 -8 -90 -11
-9 -2 -22 2 -28 10 -10 12 -17 13 -31 4 -29 -18 -70 14 -70 54 0 30 0 31 -20
13 -11 -10 -20 -29 -20 -42 0 -31 -23 -30 -49 3 -28 36 -26 50 8 85 35 34 51
36 76 9z"/>
<path d="M3943 6959 c-17 -5 -41 -20 -51 -34 -21 -26 -48 -29 -74 -7 -21 17
-64 20 -60 5 3 -18 -6 -16 -35 7 -22 17 -38 19 -114 17 -49 -2 -89 0 -89 5 0
4 -4 8 -8 8 -18 0 3 -67 29 -94 16 -17 29 -37 29 -47 0 -9 7 -22 15 -29 8 -7
15 -9 15 -4 0 4 6 0 13 -11 8 -10 19 -15 25 -11 6 3 13 2 16 -3 4 -6 59 -9
129 -7 124 2 197 18 197 42 0 17 -17 27 -25 14 -11 -18 -27 1 -21 26 4 15 1
26 -10 32 -19 11 -14 15 41 32 74 23 104 71 43 69 -18 0 -47 -5 -65 -10z"/>
<path d="M4124 7638 c-16 -5 -45 -11 -64 -14 -72 -11 -95 -24 -122 -68 -35
-54 -38 -126 -8 -192 11 -24 22 -44 24 -44 1 0 1 15 -1 33 l-4 32 17 -35 c9
-19 18 -29 21 -22 7 17 18 15 92 -15 82 -33 196 -37 281 -9 56 19 98 45 50 32
-14 -4 -52 -9 -85 -12 -63 -5 -63 -4 20 31 29 12 28 12 -22 9 -46 -4 -52 -2
-47 13 4 12 -1 10 -15 -7 -15 -17 -19 -19 -15 -7 5 13 2 18 -7 16 -8 -1 -22 1
-31 5 -10 5 -36 6 -58 4 -22 -2 -40 0 -40 4 0 7 95 21 120 18 30 -5 38 1 38
25 0 34 6 39 31 24 19 -12 19 -15 4 -31 -14 -16 -15 -18 0 -18 8 0 17 -3 20
-7 2 -5 2 -2 0 6 -3 11 8 13 51 8 90 -9 100 31 25 96 -40 36 -137 67 -207 67
-21 0 -31 6 -35 19 -6 24 0 31 27 31 12 0 28 5 36 10 18 11 -53 10 -96 -2z"/>
<path d="M2512 7353 c-19 -22 -22 -33 -16 -67 3 -22 16 -56 29 -76 12 -19 28
-53 36 -75 l14 -40 6 83 c5 63 12 91 28 113 26 35 21 61 -15 77 -38 18 -57 14
-82 -15z"/>
<path d="M40 6879 c-25 -3 221 -7 547 -7 379 -1 594 2 598 8 7 11 -1066 10
-1145 -1z"/>
<path d="M0 6789 c0 -11 1617 -6 1628 5 3 3 -362 6 -811 6 -570 0 -817 -3
-817 -11z"/>
<path d="M5262 6744 c-68 -33 -238 -200 -323 -316 -35 -49 -69 -88 -75 -88 -7
0 -16 -5 -20 -11 -14 -23 40 4 77 38 33 30 82 63 95 63 2 0 4 -9 4 -20 0 -16
6 -19 31 -16 17 2 35 10 40 17 8 12 11 12 19 -1 8 -12 10 -10 10 11 0 14 9 35
20 47 12 12 17 28 13 37 -4 13 -1 16 18 13 14 -2 23 2 22 8 -1 7 11 17 27 24
17 7 33 24 40 43 7 18 14 26 17 20 2 -7 12 -13 20 -13 13 0 13 2 2 16 -13 16
-3 16 123 10 l138 -8 -13 34 c-18 50 -28 63 -71 92 -54 36 -139 36 -214 0z"/>
<path d="M598 6712 c-394 -1 -598 -6 -598 -12 0 -7 146 -9 437 -5 241 3 705 5
1031 5 395 0 592 3 592 10 0 7 -144 9 -432 8 -238 -2 -702 -4 -1030 -6z"/>
<path d="M2437 6633 c-2 -1 -550 -3 -1220 -5 -1037 -2 -1217 -5 -1217 -16 0
-12 129 -14 887 -9 489 4 1056 7 1261 7 298 0 372 3 372 13 0 9 -14 13 -41 12
-22 0 -41 -1 -42 -2z"/>
<path d="M1300 6519 c-344 -3 -777 -7 -962 -8 -222 -1 -338 -5 -338 -11 0 -7
146 -9 443 -5 243 3 836 8 1317 10 491 3 888 9 905 14 34 11 -400 11 -1365 0z"/>
<path d="M1085 6408 c-280 -3 -627 -7 -770 -8 -318 -2 -315 -2 -315 -44 l0
-32 282 3 c388 4 528 10 564 24 19 8 38 9 50 4 18 -8 69 -16 104 -16 387 1
979 9 988 14 6 4 53 18 104 32 72 18 85 24 58 25 -100 5 -613 4 -1065 -2z"/>
<path d="M3870 6392 c0 -5 -50 -9 -111 -9 -72 -1 -115 -6 -125 -14 -8 -7 -36
-12 -62 -11 -26 1 -54 -3 -62 -9 -12 -8 -11 -9 7 -4 12 3 24 1 28 -5 3 -6 10
-8 15 -5 5 3 15 -4 23 -15 7 -11 17 -17 20 -13 4 3 7 -1 7 -10 0 -18 25 -23
35 -7 3 6 14 10 23 10 12 0 8 -7 -13 -21 l-30 -21 75 6 c41 3 114 8 163 12 48
4 87 11 87 15 0 5 -9 9 -20 9 -24 0 -22 21 4 35 21 11 23 30 4 30 -7 0 -21 8
-30 18 -19 18 -38 23 -38 9z"/>
<path d="M2024 6340 c-33 -9 -83 -30 -110 -45 -48 -26 -134 -101 -134 -117 0
-4 -7 -16 -16 -25 -8 -10 -23 -28 -32 -40 l-17 -23 -475 -5 c-261 -3 -531 -8
-600 -10 -69 -2 -241 -4 -382 -5 l-258 0 0 -29 c0 -20 6 -31 18 -34 21 -6 64
-3 78 5 17 10 390 8 374 -2 -9 -6 -10 -10 -3 -10 6 0 15 5 18 10 9 14 62 12
68 -2 3 -8 6 -6 6 5 1 18 31 25 31 7 0 -6 28 -10 64 -10 36 0 68 5 71 10 3 6
13 10 21 10 8 0 12 -4 9 -10 -3 -5 3 -10 15 -10 13 0 19 4 14 11 -4 7 0 9 12
6 43 -13 470 -6 507 8 9 4 34 4 55 1 47 -8 57 -8 115 -4 55 5 61 -7 15 -28
-45 -21 -19 -14 167 41 451 133 459 135 600 112 38 -6 129 -40 133 -50 2 -4 7
-5 12 -2 10 6 69 -23 94 -47 21 -19 56 -25 56 -9 0 5 -8 12 -17 15 -12 5 -13
10 -5 18 9 9 16 8 29 -4 16 -13 22 -13 51 -2 17 8 32 20 32 26 0 21 -126 135
-182 165 -29 15 -58 34 -66 40 -7 7 -25 16 -40 19 -15 3 -47 12 -71 20 -60 19
-183 16 -257 -6z"/>
<path d="M2827 6156 c-24 -19 -60 -37 -78 -41 -19 -4 -39 -11 -45 -16 -6 -5
-23 -10 -38 -11 -14 -1 -26 -5 -26 -8 0 -8 -63 -39 -150 -75 -36 -15 -72 -33
-80 -40 -27 -22 -106 -65 -121 -65 -8 0 8 11 35 24 53 27 78 46 58 46 -15 0
-215 -80 -222 -88 -3 -4 -11 -7 -17 -8 -36 -3 -38 -4 -25 -13 10 -6 6 -10 -15
-16 -15 -5 -32 -7 -37 -6 -16 4 -46 -11 -41 -20 4 -5 -3 -9 -13 -9 -11 0 -73
-21 -139 -46 -65 -25 -147 -55 -183 -66 -36 -11 -90 -33 -120 -48 -30 -15
-120 -51 -200 -80 -278 -100 -354 -144 -520 -303 -85 -81 -105 -107 -143 -183
-24 -49 -52 -114 -62 -144 -22 -70 -48 -134 -55 -140 -4 -3 -14 -23 -22 -45
-9 -22 -32 -74 -51 -115 -54 -118 -153 -408 -282 -830 -57 -189 -89 -282 -126
-378 -16 -40 -38 -108 -49 -150 -12 -44 -29 -84 -40 -94 -18 -15 -20 -30 -20
-190 l0 -174 30 -29 c34 -32 38 -48 13 -43 -10 2 -17 9 -16 15 1 6 -4 14 -12
17 -12 4 -15 -4 -15 -38 0 -26 5 -47 12 -50 10 -5 10 -7 1 -12 -7 -3 -13 -12
-13 -19 0 -15 59 -31 69 -19 3 5 13 9 21 9 21 0 14 65 -8 82 -14 10 -15 12 -2
13 8 0 57 -27 107 -60 51 -33 167 -98 258 -143 91 -46 162 -87 158 -91 -5 -4
1 -14 11 -22 11 -8 16 -14 11 -14 -5 0 0 -6 11 -14 10 -8 28 -13 40 -10 12 3
26 -1 33 -10 9 -11 18 -13 31 -6 13 7 22 4 35 -10 13 -14 37 -21 96 -26 57 -5
79 -10 79 -20 0 -8 5 -14 11 -14 6 0 9 7 5 15 -6 17 19 21 29 5 3 -5 0 -10 -7
-10 -10 0 -9 -3 2 -10 9 -6 17 -5 21 2 9 14 29 1 29 -18 0 -11 -6 -13 -20 -9
-27 9 -25 -10 2 -29 12 -9 17 -16 10 -16 -23 0 -45 -74 -28 -97 8 -13 7 -14
-16 -17 -7 0 -14 -11 -16 -22 -2 -12 -12 -30 -23 -40 -10 -9 -19 -24 -19 -32
0 -35 -24 -93 -37 -88 -7 3 -13 -1 -13 -8 0 -8 -3 -16 -7 -19 -5 -2 -2 -2 4
-1 19 5 16 -13 -4 -24 -9 -6 -17 -19 -18 -31 -1 -16 4 -21 22 -21 23 0 22 -1
-11 -35 -20 -19 -43 -35 -53 -36 -11 0 -13 -3 -6 -6 24 -9 12 -28 -35 -58 -42
-27 -47 -34 -44 -63 2 -37 0 -38 -24 -15 -13 14 -18 15 -22 5 -2 -7 -15 -17
-27 -22 -13 -5 -25 -19 -27 -32 -4 -29 -35 -26 -60 5 -9 12 -20 18 -24 14 -4
-4 -2 -7 4 -7 17 0 10 -48 -7 -55 -14 -5 -14 -7 -1 -16 11 -8 5 -9 -23 -5 -23
3 -37 1 -37 -6 0 -20 -53 -120 -67 -125 -18 -7 -17 -23 2 -23 19 0 19 -9 -2
-51 -21 -41 -23 -126 -4 -138 11 -7 11 -9 0 -14 -11 -5 -10 -8 4 -17 10 -6 22
-22 27 -36 6 -14 15 -22 23 -18 8 3 21 -6 31 -20 9 -15 25 -26 35 -26 11 0 22
-8 24 -18 4 -13 5 -11 6 6 0 12 5 22 11 22 5 0 9 -5 7 -12 -3 -16 34 -23 43
-8 5 8 15 4 33 -14 18 -18 21 -26 12 -26 -8 0 -15 -5 -15 -11 0 -5 -4 -7 -10
-4 -9 6 -15 -8 -11 -29 1 -4 -6 -14 -15 -20 -13 -10 -14 -17 -5 -33 9 -19 7
-22 -17 -31 -23 -8 -28 -15 -26 -38 1 -16 -2 -38 -7 -49 -7 -18 -8 -18 -9 5
-1 23 -2 23 -11 7 -9 -15 -6 -23 10 -41 25 -27 27 -42 5 -54 -15 -8 -15 -17
-4 -78 7 -38 16 -84 21 -102 4 -19 4 -30 -2 -27 -5 4 -9 15 -9 25 0 10 -5 22
-11 25 -6 4 -8 13 -5 21 3 8 -6 25 -20 39 -14 14 -22 30 -19 35 3 6 1 10 -4
10 -14 0 -14 -31 -1 -64 5 -14 10 -55 12 -91 1 -37 6 -69 10 -71 4 -3 8 -16 8
-29 0 -13 5 -27 10 -30 14 -8 13 -52 -1 -61 -6 -3 -14 -1 -18 5 -9 13 -41 4
-41 -12 0 -5 11 -25 25 -43 30 -40 32 -70 5 -79 -24 -7 -24 -13 -5 -39 9 -12
15 -42 15 -73 l0 -53 34 0 c40 0 32 -36 82 362 36 287 52 375 97 528 14 47 30
104 36 127 9 34 17 44 45 53 18 6 41 8 50 4 25 -9 307 6 300 17 -3 5 7 9 21 9
15 0 24 -4 20 -10 -3 -6 5 -10 19 -10 13 0 26 5 28 12 6 17 88 39 88 24 0 -7
-6 -13 -12 -14 -7 0 -26 -5 -43 -11 -29 -10 -28 -10 15 -8 l45 1 -1 -39 c-2
-43 -24 -178 -48 -289 -17 -77 -15 -98 16 -203 19 -64 20 -77 8 -112 -7 -22
-10 -51 -6 -66 6 -23 11 -26 34 -22 257 55 278 58 426 60 100 1 159 -3 176
-11 22 -10 19 -11 -22 -6 -36 5 -48 3 -48 -7 0 -10 -3 -10 -12 -1 -23 23 -219
8 -383 -29 -49 -11 -102 -23 -117 -26 -15 -3 -33 -11 -39 -19 -6 -8 -16 -14
-21 -14 -5 0 -25 -12 -44 -26 -19 -15 -37 -24 -40 -21 -3 3 18 24 46 46 29 23
46 41 38 42 -48 4 -85 -4 -100 -22 -9 -10 -23 -19 -31 -19 -7 0 -22 -8 -31
-19 -9 -10 -50 -40 -91 -66 -47 -31 -72 -52 -68 -61 8 -21 14 -18 81 36 34 27
62 48 62 46 0 -2 -16 -28 -36 -57 -34 -50 -94 -162 -94 -174 0 -3 63 -5 139
-5 138 0 140 0 203 33 121 62 229 90 398 103 52 4 98 9 103 10 4 1 14 2 22 3
8 0 24 11 36 24 l21 22 -11 -22 c-11 -22 -10 -23 21 -24 19 -1 25 -3 13 -6
-87 -18 -170 -37 -223 -50 -51 -13 -65 -14 -72 -4 -9 15 -86 6 -96 -11 -7 -10
16 -8 71 9 17 5 18 3 8 -9 -7 -8 -39 -20 -70 -27 -32 -7 -80 -21 -108 -32
l-50 -19 90 4 c50 2 115 8 145 14 106 20 316 35 455 33 77 -2 177 -4 223 -4
45 -1 82 -6 82 -12 0 -5 5 -4 12 3 9 9 19 6 44 -13 l33 -25 1253 2 1253 3 80
23 c44 13 150 45 235 72 228 72 344 106 448 131 51 12 89 26 85 30 -13 13
-225 32 -232 22 -3 -6 -44 -10 -91 -10 -107 0 -258 -11 -324 -24 -27 -5 -53
-6 -58 -1 -8 8 -777 7 -784 -1 -2 -2 -25 -1 -50 3 -26 4 -66 5 -90 2 -28 -3
-44 -1 -44 6 0 7 79 11 248 12 136 1 265 3 287 5 22 2 141 6 265 9 124 3 272
11 330 17 144 16 386 16 495 0 206 -30 217 -27 197 41 -7 24 -19 79 -26 123
-8 44 -17 92 -21 107 -13 51 9 28 85 -89 41 -64 99 -149 128 -190 28 -41 52
-75 52 -77 0 -8 -116 8 -122 17 -6 9 -8 9 -8 0 0 -6 -10 -13 -22 -15 -13 -2
-22 -9 -21 -16 2 -6 -4 -12 -12 -12 -8 0 -15 5 -15 10 0 14 -87 13 -92 -1 -3
-8 -28 -12 -68 -11 -45 1 -70 -4 -82 -14 -12 -11 -26 -14 -49 -9 -22 5 -29 4
-25 -4 5 -7 -2 -11 -18 -11 -33 0 -42 -16 -17 -30 39 -20 135 -22 256 -5 197
29 261 30 330 7 33 -11 62 -19 64 -17 10 11 -28 75 -68 116 -45 45 -66 69 -86
101 -5 9 -49 74 -97 145 -94 138 -139 193 -160 193 -7 0 -24 9 -38 20 -19 15
-41 20 -92 20 l-67 0 -11 39 c-14 55 -45 89 -90 101 -43 12 -62 37 -75 100 -9
46 -73 243 -97 299 l-18 43 22 -6 c13 -3 33 -6 45 -6 13 0 33 -15 52 -42 35
-48 41 -42 10 9 -21 33 -21 35 -3 32 11 -1 48 1 84 5 36 4 106 9 155 11 50 1
147 6 216 10 l127 8 32 -69 c94 -200 123 -283 176 -494 56 -227 221 -691 257
-722 16 -15 39 -18 138 -18 l119 0 -6 28 c-3 15 -6 36 -8 46 -2 11 -8 22 -14
24 -15 5 -16 62 -1 62 6 0 9 -9 6 -19 -3 -13 1 -21 15 -24 14 -4 18 -11 13
-26 -3 -11 2 -34 12 -53 14 -25 26 -34 51 -36 26 -3 32 0 32 15 0 10 -7 29
-16 41 -11 16 -12 22 -3 22 10 0 10 3 1 12 -16 16 -15 28 2 28 23 0 19 71 -5
77 -10 3 -20 15 -20 27 -1 11 -2 28 -3 36 -2 29 -16 42 -32 29 -15 -12 -19
-49 -5 -49 8 0 24 -90 17 -97 -10 -11 -46 20 -46 38 0 14 -10 25 -30 32 -20 8
-30 19 -32 36 -2 16 -10 27 -23 30 -34 6 -55 39 -44 69 5 14 7 32 4 40 -3 8
-1 20 4 26 5 6 11 20 14 31 4 16 5 15 6 -6 0 -15 8 -32 16 -39 13 -11 15 -7
15 29 0 40 -11 58 -68 117 -8 9 -9 14 -3 14 6 0 11 18 11 41 0 22 -4 38 -9 35
-12 -8 -19 -86 -10 -113 6 -15 3 -25 -8 -35 -14 -11 -16 -11 -11 3 4 9 3 20
-2 25 -16 16 -20 68 -9 97 9 21 8 31 -1 42 -10 12 -10 19 -2 27 7 7 8 17 2 29
-16 28 8 34 31 7 l19 -23 -2 30 c-2 21 -9 31 -23 34 -23 4 -37 21 -30 38 2 8
-2 10 -12 6 -10 -4 -14 -2 -10 4 4 6 0 24 -8 39 -8 16 -15 48 -15 72 0 23 -4
42 -10 42 -5 0 -7 7 -4 15 4 9 0 15 -8 15 -14 0 -38 39 -38 61 0 5 -8 22 -17
36 -10 14 -16 39 -14 55 1 16 -2 35 -8 42 -12 14 1 66 15 66 14 0 33 -36 34
-63 0 -15 6 -43 14 -62 8 -19 11 -37 6 -40 -4 -3 -10 -2 -13 2 -2 5 -2 2 0 -5
1 -8 3 -20 3 -28 0 -8 6 -14 13 -14 8 0 20 -18 27 -40 15 -46 27 -51 36 -14 5
19 2 29 -10 36 -9 5 -14 13 -11 19 4 5 -1 21 -9 36 -27 49 -46 117 -35 124 8
5 8 9 0 13 -6 4 -11 14 -11 22 0 22 -25 44 -48 44 -11 0 -23 6 -25 13 -3 6 -6
3 -6 -8 -1 -30 -36 -48 -61 -33 -30 19 -33 39 -9 65 24 24 53 30 64 13 5 -8
12 -7 22 2 9 7 19 11 22 8 3 -3 7 3 9 12 2 11 -3 18 -12 18 -9 0 -16 4 -16 9
0 15 30 41 46 41 11 0 13 6 9 21 -5 15 -4 19 4 15 6 -4 20 -4 31 -1 25 8 30
75 5 75 -14 0 -35 29 -35 49 0 6 5 11 10 11 6 0 10 -7 10 -15 0 -8 8 -15 18
-15 14 0 15 2 2 10 -12 8 -13 11 -1 19 9 6 10 10 2 12 -6 2 -13 22 -15 44 -2
22 -4 46 -5 54 0 7 -7 11 -15 8 -10 -4 -14 3 -13 26 0 18 -6 47 -14 65 -14 32
-29 43 -29 20 0 -9 -3 -9 -12 0 -10 10 -10 14 0 21 10 6 10 15 -1 46 -8 21
-19 40 -26 41 -6 1 -7 0 -1 -3 15 -7 12 -23 -5 -23 -8 0 -22 11 -31 25 -18 28
-34 33 -34 11 0 -8 -8 -17 -17 -19 -17 -4 -17 -5 0 -6 18 -1 25 -31 7 -31 -16
0 -128 58 -135 70 -3 5 3 10 13 10 16 0 21 8 24 44 3 38 0 46 -17 50 -33 9
-40 7 -20 -7 11 -9 15 -19 10 -27 -6 -10 -11 -9 -22 5 -12 18 -13 17 -14 -6 0
-22 -2 -21 -12 8 -13 35 -27 53 -27 35 0 -6 -7 -9 -15 -6 -17 7 -20 49 -5 59
17 10 11 22 -12 29 -21 6 -21 7 -5 17 9 5 17 15 17 22 0 8 -3 7 -9 -2 -5 -8
-14 -10 -21 -6 -10 6 -9 11 5 22 17 12 15 13 -23 13 -23 0 -42 5 -42 10 0 6 9
10 20 10 27 0 38 29 17 45 -21 15 -22 31 -1 39 10 4 14 12 10 22 -4 11 1 18
14 21 11 3 20 9 20 13 0 5 10 10 23 12 12 2 21 8 20 14 -1 8 11 9 37 4 51 -9
87 -2 103 20 7 9 23 20 37 23 36 10 58 27 43 34 -26 10 -12 18 30 16 23 -1 32
1 20 3 -13 3 -23 8 -23 12 0 4 37 22 83 41 229 95 390 186 499 281 49 43 63
50 99 50 36 0 40 2 29 15 -9 11 -16 12 -26 4 -7 -6 -18 -7 -25 -3 -22 13 31
43 68 37 21 -4 33 -2 33 6 0 6 5 11 11 11 6 0 9 -6 6 -13 -9 -24 36 -41 111
-43 64 -2 72 0 72 16 0 10 -3 20 -7 23 -5 2 -2 2 5 1 6 -2 12 3 12 10 0 8 14
16 31 18 25 4 32 1 40 -20 6 -16 14 -22 25 -18 8 3 17 -1 21 -9 4 -11 9 -13
18 -5 19 16 105 25 105 11 0 -6 -7 -11 -17 -11 -9 0 -14 -3 -10 -6 3 -3 15 -3
26 1 19 6 21 14 20 78 l-1 72 -39 0 c-22 1 -39 -2 -39 -6 0 -12 -43 -18 -59
-9 -11 6 -22 3 -33 -7 -14 -13 -20 -13 -33 -3 -8 7 -12 16 -9 21 3 5 0 9 -6 9
-7 0 -10 -6 -7 -14 9 -22 0 -24 -50 -15 -33 6 -49 6 -54 -2 -4 -7 -17 -9 -30
-6 -38 10 -43 9 -47 -2 -2 -6 7 -11 20 -11 l23 -1 -22 -18 c-12 -10 -43 -22
-69 -26 -26 -3 -52 -9 -59 -11 -17 -7 -144 253 -160 327 -4 19 -23 68 -42 109
-57 124 -92 227 -128 381 -34 141 -69 249 -102 314 -30 58 -33 65 -33 86 0 11
-5 29 -11 40 -5 11 -19 55 -30 97 -58 223 -187 620 -209 642 -3 3 -7 18 -8 33
-2 16 -11 45 -19 65 -9 20 -17 46 -19 57 -22 143 -26 154 -63 179 -20 13 -69
56 -109 95 -40 39 -80 71 -90 71 -12 0 -13 3 -5 11 9 9 -2 23 -40 55 -45 39
-71 50 -101 45 -5 -1 -6 5 -3 14 4 10 0 15 -12 15 -10 0 -26 9 -36 20 -10 12
-24 19 -31 16 -7 -3 -19 3 -28 13 -9 10 -29 18 -44 19 -34 1 -84 26 -74 38 4
4 -1 2 -10 -5 -15 -12 -18 -11 -18 3 0 9 -6 16 -13 16 -7 0 -19 9 -27 20 -11
15 -26 20 -59 20 -42 0 -43 1 -25 15 18 14 18 14 -6 16 -14 1 -28 1 -32 0 -4
0 -12 8 -18 19 -10 19 -1 28 14 13 4 -5 11 -8 14 -8 19 -1 112 -40 112 -47 0
-4 6 -8 13 -8 6 0 41 -14 75 -30 35 -17 67 -30 70 -30 14 1 -105 73 -163 100
-33 15 -80 37 -105 48 -141 65 -237 100 -385 141 -159 44 -187 51 -247 57 -80
7 -337 82 -366 106 -11 9 -61 23 -111 31 -25 4 -14 -118 16 -183 38 -81 49
-181 34 -309 -7 -58 -21 -132 -32 -164 -21 -66 -98 -217 -111 -217 -4 0 -8 -5
-8 -11 0 -6 -15 -25 -34 -42 -18 -18 -57 -55 -87 -83 -59 -55 -177 -134 -201
-134 -9 0 -34 -7 -57 -15 -61 -21 -200 -37 -320 -36 -103 1 -130 6 -226 42
-28 10 -56 19 -62 19 -7 0 -17 8 -22 18 -6 10 -11 12 -11 4 0 -23 -230 106
-230 129 0 6 -4 7 -10 4 -5 -3 -45 29 -89 72 -132 130 -163 221 -157 458 2 77
2 134 -1 128 -9 -24 -20 -13 -27 27 -4 24 -14 45 -26 52 -12 8 -20 24 -20 40
0 40 33 122 64 159 26 31 34 59 17 59 -5 0 -29 -15 -54 -34z m930 -2063 c14
-17 14 -17 9 1 -6 17 -2 18 46 13 63 -6 124 -32 156 -67 28 -30 65 -107 58
-119 -3 -5 -32 -12 -63 -15 -32 -4 -66 -10 -76 -12 -13 -4 -21 3 -29 28 -7 18
-11 36 -10 40 1 3 -17 9 -39 13 -36 6 -45 4 -66 -17 -20 -21 -25 -38 -29 -99
-5 -63 -2 -79 15 -107 26 -40 40 -46 87 -38 28 6 38 14 49 40 14 32 17 33 85
40 39 3 75 4 80 1 18 -11 -16 -80 -65 -130 -56 -60 -118 -84 -215 -84 -64 0
-135 34 -170 81 -25 34 -49 123 -50 184 -1 102 73 220 155 249 52 18 55 18 72
-2z m607 -36 c-3 -12 -17 -44 -30 -70 -37 -74 -30 -87 40 -87 31 0 35 4 60 63
51 116 43 108 100 101 28 -4 63 -12 78 -18 l27 -11 -85 -255 c-47 -140 -88
-257 -90 -259 -4 -5 -145 40 -158 50 -4 4 5 48 22 97 l30 90 -30 6 c-80 16
-84 14 -119 -80 l-32 -86 -61 7 c-85 10 -108 20 -98 42 31 70 67 139 74 141 4
2 8 9 8 17 0 7 15 42 34 79 30 58 36 64 45 49 13 -23 14 -8 1 17 -7 13 -5 24
10 43 11 13 17 27 14 29 -2 3 0 16 6 29 10 22 17 24 86 26 72 1 75 1 68 -20z
m-1012 -62 c9 -27 17 -53 17 -57 1 -10 -99 -39 -110 -32 -5 3 -9 -2 -9 -10 0
-9 4 -16 9 -16 5 0 13 -10 16 -22 11 -35 54 -149 72 -188 9 -19 26 -61 39 -93
l23 -58 -32 -13 c-61 -26 -125 -44 -131 -39 -3 4 -6 15 -6 25 0 10 -7 30 -16
43 -9 14 -13 25 -9 25 4 0 3 6 -3 13 -6 7 -20 39 -32 72 -12 33 -30 79 -41
102 -10 24 -19 51 -19 61 0 35 -18 41 -77 25 -46 -12 -57 -12 -64 -1 -14 22
-30 111 -22 118 10 9 146 42 154 38 3 -2 12 2 20 8 12 10 71 26 104 29 6 0 19
6 30 13 11 6 31 11 45 9 20 -2 28 -11 42 -52z m1523 -80 c73 -49 82 -61 61
-83 -9 -10 -16 -21 -16 -24 0 -16 -271 -408 -282 -408 -4 0 -31 18 -60 40 -29
22 -56 40 -60 40 -14 0 -8 37 8 51 9 7 19 20 23 29 11 30 256 390 264 390 5 0
33 -16 62 -35z m-1988 -110 c60 -27 172 -135 202 -192 50 -98 48 -163 -8 -240
-72 -100 -218 -133 -337 -77 -40 19 -154 129 -154 148 0 7 -11 30 -25 50 -37
54 -44 139 -17 192 27 53 66 88 132 118 72 34 137 34 207 1z m2144 -108 c-25
-65 -126 -267 -156 -313 -24 -35 -35 -64 -35 -88 0 -32 13 -49 22 -28 3 7 141
65 184 77 23 6 30 -9 40 -83 2 -19 6 -37 8 -41 9 -14 -10 -28 -69 -50 -33 -13
-68 -27 -77 -32 -10 -5 -23 -6 -31 -3 -8 3 -20 -2 -27 -10 -17 -21 -30 -11
-30 25 0 19 5 29 15 29 8 0 15 5 15 10 0 6 -9 10 -20 10 -13 0 -22 -9 -26 -27
-3 -16 -7 -33 -9 -40 -2 -6 1 -14 8 -16 9 -3 -94 -57 -109 -57 -3 0 5 18 16
40 30 59 26 106 -15 170 -68 108 -69 95 10 163 94 81 222 213 253 259 26 40
47 43 33 5z m-2601 -257 c54 -33 135 -84 179 -113 44 -28 110 -70 145 -92 36
-22 66 -45 66 -50 0 -13 -23 -47 -73 -109 -23 -28 -24 -28 -55 -12 -18 9 -32
21 -32 26 0 6 -5 10 -11 10 -7 0 -34 13 -60 30 l-49 30 -35 -48 c-19 -26 -35
-50 -35 -54 0 -3 38 -30 85 -59 47 -28 85 -59 85 -67 0 -8 -11 -30 -25 -48
-14 -18 -25 -37 -25 -43 0 -6 -6 -11 -14 -11 -8 0 -16 -5 -18 -12 -2 -6 -43
16 -97 53 -52 35 -102 68 -112 74 -23 12 -25 25 -4 25 18 0 20 16 4 26 -7 4
-16 -1 -21 -10 -5 -9 -14 -16 -20 -16 -17 0 -58 41 -59 59 0 10 -2 12 -6 4 -6
-15 -72 16 -112 53 -14 13 -30 24 -34 24 -5 0 -6 8 -3 18 11 28 70 122 77 122
3 0 18 -11 32 -24 14 -13 50 -38 80 -55 l54 -31 37 52 36 53 -22 17 c-13 10
-32 21 -43 24 -11 4 -22 10 -25 13 -3 4 -22 17 -42 30 -21 12 -38 26 -38 29 0
12 81 142 88 142 2 0 48 -27 102 -60z m2697 -602 c-8 -121 -21 -200 -42 -245
-32 -67 -132 -113 -197 -91 -43 15 -68 72 -68 157 0 62 2 70 18 65 14 -5 14
-3 -2 10 -25 20 -106 25 -168 10 l-28 -6 0 61 c0 98 -1 98 147 106 71 4 160
13 198 20 39 7 88 13 109 14 l39 1 -6 -102z m-2862 -71 c8 -12 15 -13 22 -6
16 16 27 -9 13 -26 -10 -12 -9 -15 4 -15 9 0 16 -4 16 -10 0 -5 5 -10 10 -10
7 0 7 7 0 21 -7 11 -10 23 -7 25 16 16 117 -63 150 -116 24 -38 45 -146 46
-233 l1 -79 -42 7 c-45 8 -115 33 -185 67 -23 11 -46 17 -51 14 -6 -3 -23 -1
-39 6 -15 6 -30 11 -33 10 -3 0 -29 12 -59 26 -54 27 -74 58 -86 132 -20 126
-21 117 23 160 45 42 59 47 146 44 41 -1 63 -6 71 -17z m3350 -17 c4 -11 16
-31 28 -44 77 -84 113 -140 122 -190 4 -20 18 -52 31 -71 13 -20 40 -101 64
-192 23 -87 63 -233 90 -324 86 -290 113 -409 94 -409 -3 0 -14 5 -25 10 -15
8 -19 8 -17 -2 3 -14 -7 -14 -61 -2 -25 5 -32 4 -27 -4 5 -8 0 -12 -12 -12
-11 0 -23 7 -26 16 -3 8 -10 13 -15 9 -6 -3 -8 -12 -4 -20 6 -17 -12 -20 -23
-4 -3 6 -17 8 -33 4 -25 -6 -25 -6 -6 9 19 14 17 15 -27 14 -46 -1 -59 -17
-15 -19 l22 0 -23 -11 c-17 -9 -26 -8 -40 5 -10 10 -34 17 -53 16 l-34 -1 34
-12 c27 -10 31 -14 18 -19 -9 -3 -23 -5 -29 -3 -7 3 -33 7 -57 10 -37 6 -43 4
-37 -10 5 -13 2 -15 -11 -9 -10 4 -22 7 -28 6 -67 -7 -185 -7 -185 0 0 5 5 9
10 9 6 0 10 4 10 10 0 5 -6 7 -14 4 -9 -4 -24 17 -46 63 l-32 68 15 61 c18 71
113 323 192 514 52 122 58 145 66 240 4 58 20 150 34 205 14 55 25 101 25 102
0 2 4 3 9 3 5 0 13 -9 16 -20z m-4160 -128 c-8 -51 19 -246 50 -362 15 -52 30
-112 36 -132 5 -20 18 -62 30 -93 21 -56 21 -59 5 -163 -9 -59 -21 -174 -26
-257 -9 -154 -24 -250 -43 -273 -6 -7 -37 -26 -70 -43 -34 -16 -54 -23 -47
-14 11 13 7 15 -24 15 -40 0 -45 -6 -19 -26 10 -7 15 -16 10 -20 -4 -4 -13 0
-20 8 -6 9 -23 19 -37 23 -20 6 -23 5 -12 -6 25 -27 6 -41 -21 -15 -8 8 -20
14 -28 14 -33 -2 -50 3 -44 12 3 6 -3 10 -13 10 -22 0 -37 -26 -22 -35 17 -10
11 -35 -6 -28 -12 4 -15 19 -13 69 1 35 -1 67 -4 71 -4 3 -7 -1 -7 -10 0 -13
-9 -17 -34 -17 -19 0 -38 -5 -41 -10 -4 -7 -12 -7 -25 0 -12 7 -27 7 -45 0
-14 -5 -42 -10 -61 -10 -21 0 -33 -4 -29 -10 3 -5 2 -10 -4 -10 -5 0 -16 -2
-24 -6 -27 -10 -12 77 32 181 23 55 52 125 65 155 13 30 27 64 30 75 l7 20 16
-20 c15 -19 15 -19 8 5 -11 39 -9 46 39 205 24 83 59 208 77 280 19 81 40 141
54 160 13 16 33 57 46 89 13 36 39 79 65 107 24 25 44 50 44 54 0 23 36 45 72
45 l40 0 -7 -38z m3196 -102 c9 0 22 -7 29 -15 7 -8 16 -12 21 -9 5 3 42 -5
82 -17 39 -12 98 -23 129 -23 32 -1 58 -4 58 -8 0 -4 -29 -28 -65 -53 -36 -26
-65 -53 -65 -61 0 -8 -7 -17 -15 -20 -8 -4 -15 -10 -15 -16 0 -18 -52 -78 -81
-92 -33 -16 -40 -7 -9 12 11 6 29 30 40 52 11 22 29 46 40 52 11 7 20 16 20
21 0 4 -5 5 -10 2 -6 -4 -17 -1 -25 5 -12 10 -17 7 -27 -15 -8 -18 -18 -25
-29 -22 -19 5 -38 -25 -20 -31 7 -2 6 -10 -2 -23 -16 -25 -31 -24 -24 1 8 32
-13 23 -24 -10 -12 -33 -11 -32 -33 -24 -22 9 -20 21 5 27 12 3 19 9 16 14 -3
4 10 23 29 42 18 19 31 38 28 43 -10 16 -53 8 -64 -12 -6 -10 -16 -17 -24 -14
-8 3 -23 -9 -37 -28 -13 -18 -32 -39 -43 -47 -10 -8 -26 -22 -35 -33 -8 -10
-26 -18 -39 -18 -23 0 -23 1 11 43 29 37 87 154 87 176 0 5 12 34 26 66 19 41
29 54 37 46 6 -6 19 -11 28 -11z m-2099 -237 c10 -9 18 -22 18 -30 0 -7 4 -13
8 -13 11 0 67 -105 101 -190 l28 -69 -23 -5 c-12 -3 -62 -9 -110 -12 -48 -3
-91 -7 -96 -10 -8 -5 -12 10 -9 35 2 7 -2 10 -8 6 -6 -3 -11 -15 -11 -26 0
-13 -7 -19 -24 -19 -12 0 -51 -3 -84 -6 -53 -6 -62 -4 -68 11 -4 9 -17 28 -28
40 -24 26 -56 117 -56 158 0 14 -9 48 -19 76 -21 53 -19 66 10 51 10 -6 24 -9
30 -8 7 2 16 -8 20 -22 5 -14 18 -56 30 -95 24 -80 42 -105 70 -98 30 8 32 19
8 65 -45 87 -50 104 -24 95 8 -4 17 -2 20 3 4 6 15 10 25 10 21 0 65 -73 55
-90 -3 -5 0 -7 8 -4 10 3 18 -5 25 -25 10 -28 14 -30 44 -24 18 3 35 8 38 10
7 6 -32 73 -73 125 -39 50 -39 50 17 63 19 4 32 2 37 -7 7 -10 9 -9 9 5 0 21
8 22 32 0z m1890 -126 c7 -7 21 -16 31 -20 10 -4 15 -11 12 -17 -3 -5 0 -7 9
-4 12 4 14 0 10 -21 -3 -17 -1 -24 6 -20 5 3 10 13 10 21 0 17 4 17 28 4 9 -5
34 -16 54 -26 21 -9 35 -20 32 -25 -3 -5 -10 -7 -15 -4 -5 4 -15 0 -22 -7 -15
-16 -20 -58 -7 -58 6 0 10 10 10 22 0 27 13 15 16 -15 3 -36 -13 -56 -38 -49
l-22 5 21 -26 c17 -22 19 -33 12 -77 -17 -105 -62 -158 -143 -167 -42 -5 -48
-3 -81 30 -53 53 -48 86 34 214 l39 62 -44 21 c-27 12 -42 25 -38 31 4 7 -1 9
-15 4 -26 -8 -27 5 -1 38 11 14 20 28 20 32 0 13 45 64 57 64 6 1 18 -5 25
-12z m-1643 -264 c55 -62 58 -69 37 -98 -21 -30 -56 -95 -56 -103 0 -4 9 -13
20 -20 18 -11 29 -9 78 16 55 28 60 29 87 15 37 -19 85 -63 85 -77 0 -6 -31
-28 -68 -50 -37 -21 -98 -57 -136 -79 -49 -29 -71 -37 -74 -28 -3 8 -8 5 -16
-9 -6 -12 -26 -31 -43 -42 l-33 -20 -10 29 c-30 78 -48 105 -100 151 -61 54
-125 160 -115 191 15 49 90 85 118 56 9 -9 21 -14 26 -11 19 12 43 -7 38 -30
-2 -13 -3 -24 -2 -24 2 0 18 30 37 67 58 117 61 123 69 123 4 0 30 -26 58 -57z
m1403 -88 c10 -26 108 -153 183 -238 14 -15 25 -33 25 -41 0 -11 -32 -75 -116
-236 -23 -45 -72 -90 -96 -90 -49 0 -89 86 -82 178 2 28 18 87 35 131 l31 80
-32 53 -33 53 20 35 c11 19 24 51 27 70 4 19 10 44 14 55 l6 20 3 -20 c2 -11
9 -33 15 -50z m-1026 -311 c21 -6 35 -30 86 -149 24 -56 28 -78 23 -113 -4
-24 -12 -45 -20 -48 -13 -5 -93 39 -108 60 -4 6 -6 21 -3 34 4 26 -29 102 -44
102 -20 0 -23 -54 -6 -107 10 -30 15 -66 12 -79 -5 -17 -2 -24 8 -24 9 0 16
-17 20 -49 10 -77 -14 -113 -33 -48 l-9 32 -1 -37 c-1 -21 4 -38 9 -38 14 0
12 -19 -3 -34 -15 -16 -73 -31 -102 -27 -86 10 -185 79 -211 147 -17 44 -17
46 7 95 12 28 27 53 32 56 4 3 26 -7 48 -23 35 -24 39 -30 33 -59 -4 -25 0
-38 21 -64 26 -31 28 -31 41 -13 12 17 10 29 -11 91 -31 86 -31 118 -4 177 39
81 141 138 215 118z m864 -24 c0 -16 16 -65 35 -108 19 -44 49 -130 67 -191
l31 -112 -34 -70 c-26 -56 -47 -81 -99 -124 -35 -29 -68 -51 -72 -49 -9 6 -11
66 -2 88 3 9 12 16 20 16 8 0 14 5 14 11 0 7 21 36 46 66 44 52 46 55 33 85
l-13 31 -38 -44 c-21 -24 -38 -47 -38 -51 0 -4 -6 -8 -14 -8 -18 0 -49 82 -39
106 9 25 52 87 65 95 6 4 4 17 -6 38 -9 17 -18 31 -20 31 -2 0 -22 -31 -45
-70 -23 -38 -44 -70 -46 -70 -7 0 7 94 15 105 4 6 20 41 35 79 32 81 63 136
76 136 5 0 9 9 9 20 0 11 5 20 10 20 6 0 10 -13 10 -30z m2036 -110 c15 0 24
-6 24 -15 0 -16 -21 -18 -300 -20 -74 -1 -170 -7 -214 -13 -77 -12 -186 -7
-186 8 0 13 21 17 115 19 50 2 185 8 300 16 116 7 216 11 223 9 8 -2 25 -4 38
-4z m-2642 -70 c14 -5 26 -17 27 -27 0 -14 2 -15 6 -3 9 22 21 28 48 22 20 -3
26 -15 40 -76 25 -104 37 -137 58 -148 31 -16 44 7 51 94 4 44 9 85 13 91 3 6
26 6 57 2 28 -4 63 -7 78 -7 15 1 30 -3 33 -7 6 -11 -25 -264 -33 -271 -4 -3
-8 -51 -10 -107 -1 -56 -7 -114 -12 -129 -10 -24 -14 -26 -48 -20 -20 4 -57 9
-82 12 -67 9 -229 53 -276 75 -60 28 -77 52 -82 112 -6 72 20 125 71 151 37
18 38 20 32 55 -4 20 -10 41 -14 46 -4 6 -13 36 -20 69 -11 49 -11 60 0 67 18
11 32 11 63 -1z m-789 -916 c83 -8 187 -17 233 -21 45 -3 82 -10 82 -14 0 -4
-21 -6 -47 -4 -354 33 -451 35 -486 13 -14 -10 -55 -22 -89 -28 -35 -5 -83
-14 -108 -20 -25 -6 -64 -12 -87 -15 -23 -2 -51 -8 -62 -15 -12 -6 -46 -11
-76 -11 -30 -1 -52 -5 -49 -10 5 -9 -14 -13 -55 -9 -23 2 -31 -1 -93 -30 -14
-7 -31 -9 -37 -6 -6 4 -19 2 -29 -3 -11 -6 -45 -13 -77 -16 -31 -3 -66 -10
-76 -16 -11 -5 -35 -7 -54 -3 -26 4 -44 1 -69 -14 -32 -19 -46 -19 -46 0 0 4
10 8 22 8 12 0 18 3 15 7 -7 6 109 40 165 48 15 2 44 8 65 14 41 11 301 57
523 93 93 15 141 28 154 40 19 18 19 18 -5 19 -13 1 -30 1 -38 0 -7 -2 -10 3
-6 9 7 12 79 8 330 -16z m873 -149 c-2 -3 -38 -7 -79 -10 -41 -3 -110 -10
-154 -15 -44 -5 -125 -12 -180 -15 -289 -15 -1036 -26 -960 -15 28 4 167 11
310 14 442 11 957 33 980 41 15 5 89 6 83 0z"/>
<path d="M2720 3658 c-11 -12 -20 -25 -20 -29 0 -34 89 -155 137 -186 45 -30
123 -8 123 34 0 29 -44 99 -95 150 -45 44 -60 53 -89 53 -23 0 -42 -7 -56 -22z"/>
<path d="M2152 2636 c-22 -24 -34 -66 -24 -82 4 -6 25 -17 47 -24 22 -7 44
-15 50 -18 5 -3 16 -7 25 -7 8 -1 39 -7 68 -14 29 -7 56 -11 59 -8 3 4 2 22
-1 41 -7 36 -57 96 -80 96 -7 0 -38 8 -69 19 -56 18 -56 18 -75 -3z"/>
<path d="M3483 939 c-18 -18 -16 -54 2 -69 17 -14 126 -42 134 -34 10 10 28
95 21 99 -4 3 -38 7 -76 11 -50 4 -72 2 -81 -7z"/>
<path d="M330 5601 c-91 -20 -223 -102 -263 -163 -21 -33 -22 -42 -2 -35 8 4
17 2 20 -4 4 -5 3 -9 -2 -8 -27 5 -45 -2 -39 -16 4 -10 -1 -15 -14 -15 -11 0
-20 -3 -20 -7 0 -5 -3 -18 -6 -30 -5 -18 -2 -23 12 -23 36 0 81 24 100 52 10
16 31 36 47 44 15 8 27 19 27 24 0 6 5 10 12 10 6 0 19 6 27 13 27 23 122 48
201 54 129 9 287 -45 390 -133 l50 -43 35 20 c19 12 38 25 41 31 7 11 -61 75
-89 84 -9 3 -15 9 -12 14 6 10 -95 70 -119 70 -9 0 -16 4 -16 9 0 4 -33 19
-72 31 -78 25 -241 36 -308 21z"/>
<path d="M355 5468 c-57 -12 -131 -47 -192 -93 -46 -35 -48 -48 -5 -34 141 46
222 62 310 61 76 0 97 -4 114 -19 11 -10 29 -17 39 -15 11 2 31 -6 45 -17 14
-11 32 -17 39 -14 18 6 92 -27 100 -45 2 -7 1 -10 -4 -7 -5 3 -13 0 -17 -6 -8
-14 55 -4 69 10 13 13 3 25 -55 64 -97 64 -143 85 -232 106 -94 22 -132 24
-211 9z"/>
<path d="M3591 5452 c-1 -9 -11 -11 -38 -6 l-36 7 21 -23 c22 -23 28 -40 16
-40 -4 0 -12 8 -19 17 -10 13 -18 15 -35 7 -21 -9 -20 -11 20 -37 23 -15 46
-27 51 -27 4 0 13 -8 18 -18 11 -20 101 -45 126 -36 8 4 15 1 15 -6 0 -10 3
-10 15 0 11 9 15 9 15 1 0 -7 5 -9 10 -6 6 4 8 11 5 16 -4 5 -1 9 4 9 6 0 11
-5 11 -10 0 -7 6 -7 19 -1 10 6 21 7 25 4 3 -3 6 -1 6 5 0 7 15 12 37 12 29 0
34 3 25 12 -8 8 -20 9 -39 2 -25 -9 -29 -7 -40 16 -10 22 -11 23 -12 5 -1 -18
-7 -20 -53 -18 -77 3 -102 11 -88 28 8 10 8 15 -3 22 -9 4 -17 19 -19 33 -1
14 -10 25 -18 25 -9 0 -14 -7 -12 -17 2 -10 -2 -18 -7 -18 -5 0 -12 12 -14 28
-2 15 -5 21 -6 14z"/>
<path d="M7394 5271 c-3 -3 -18 -7 -32 -8 -67 -5 -95 -12 -103 -25 -7 -10 -11
-9 -22 6 -11 15 -21 17 -56 11 -30 -5 -41 -11 -37 -21 7 -19 -11 -18 -22 2 -5
8 -27 18 -51 21 -37 5 -41 4 -34 -13 6 -16 4 -17 -8 -7 -9 7 -53 15 -100 18
-46 4 -94 8 -106 11 -12 2 -25 0 -28 -6 -3 -5 -19 -10 -34 -10 -15 0 -31 -3
-35 -7 -15 -15 -56 -14 -56 2 0 19 -16 20 -24 0 -6 -17 -36 -21 -36 -5 0 16
-52 12 -71 -6 -17 -15 -21 -15 -53 0 -19 9 -41 16 -49 16 -18 0 -39 -24 -30
-34 4 -3 9 -25 13 -49 4 -29 10 -41 20 -39 7 2 82 3 164 3 104 1 153 4 158 12
6 9 12 9 27 0 13 -8 35 -10 73 -4 29 5 56 7 60 4 4 -2 23 0 42 5 27 8 34 7 30
-3 -4 -10 6 -12 48 -8 34 3 50 1 43 -5 -8 -8 -368 -21 -610 -22 -45 0 -56 -3
-47 -12 8 -8 60 -11 169 -11 293 2 718 14 773 22 30 4 80 7 110 5 126 -6 261
17 168 29 l-33 4 33 1 c41 2 46 32 4 32 -16 0 -36 6 -45 13 -15 10 -11 12 28
9 37 -3 45 -1 45 13 0 14 -10 15 -72 12 -40 -3 -73 -6 -73 -7 0 -2 -63 -9 -85
-10 -8 0 -35 3 -60 8 -34 7 -41 11 -27 17 10 4 35 5 55 1 24 -3 47 0 65 9 15
7 29 10 32 5 6 -9 45 9 45 20 0 7 -158 8 -166 1z"/>
<path d="M7146 4292 c-3 -5 -26 -10 -52 -10 -25 -1 -51 -6 -58 -10 -6 -4 -58
-8 -116 -9 -58 -1 -116 -3 -130 -4 -14 -1 -38 1 -54 4 -16 3 -32 4 -36 2 -10
-6 29 -85 42 -85 7 0 6 -5 -1 -14 -9 -11 -2 -14 41 -19 60 -8 90 -27 40 -27
-18 0 -32 5 -32 11 0 8 -5 8 -15 -1 -10 -9 -15 -9 -15 -1 0 6 -5 11 -11 11 -6
0 -9 -10 -7 -22 3 -21 8 -23 63 -22 33 1 240 5 459 9 220 5 391 12 380 16 -12
4 -83 6 -160 4 -76 -2 -173 -2 -215 2 -71 5 -76 7 -73 27 2 11 2 15 -2 9 -3
-7 -18 -13 -32 -12 -16 0 -21 3 -12 6 8 4 21 12 28 20 11 10 18 11 28 2 7 -6
18 -8 23 -4 6 3 9 0 6 -7 -3 -8 4 -14 20 -14 28 -2 31 5 13 25 -11 11 -10 12
2 7 8 -3 23 -9 33 -12 23 -9 22 -24 -3 -24 -11 0 -20 -5 -20 -11 0 -7 9 -9 23
-5 12 3 31 6 41 6 18 0 18 1 2 19 -13 14 -14 21 -5 27 7 4 10 3 6 -3 -17 -27
69 -51 127 -35 23 7 38 7 42 1 3 -6 29 -8 57 -5 29 3 64 5 80 5 27 1 41 31 15
31 -8 0 -9 3 -3 8 6 4 12 25 14 47 2 31 0 37 -10 29 -8 -5 -31 -16 -52 -23
-36 -12 -40 -11 -64 11 l-25 23 7 -23 c6 -21 4 -23 -13 -18 -11 4 -23 2 -27
-4 -4 -6 5 -10 22 -10 45 0 61 -17 22 -22 -46 -7 -69 0 -62 20 5 11 2 14 -10
9 -11 -4 -17 -1 -17 9 0 10 -7 13 -25 8 -25 -6 -55 13 -55 35 0 6 -4 11 -9 11
-12 0 -26 -39 -22 -64 2 -15 -1 -17 -16 -11 -10 4 -57 9 -105 11 l-87 3 -7
-34 c-3 -19 -11 -39 -18 -44 -15 -12 -162 -30 -203 -24 -23 4 -31 10 -30 24 2
23 32 26 41 4 3 -8 13 -15 23 -15 15 0 16 2 3 10 -8 5 -12 12 -8 15 3 3 12 0
19 -7 16 -16 133 -12 123 4 -3 5 0 8 8 6 7 -2 15 1 16 7 1 5 -5 10 -13 10 -8
0 -14 5 -12 10 1 6 13 9 26 7 17 -2 22 1 18 11 -3 8 -2 19 2 25 9 15 162 23
179 10 17 -14 25 -4 17 21 -4 14 -14 19 -38 19 -18 -1 -26 -3 -19 -5 6 -3 9
-9 6 -14 -3 -6 -10 -6 -17 -1 -7 5 -24 12 -39 16 -14 3 -33 8 -41 12 -8 3 -17
1 -21 -4z"/>
<path d="M7189 1529 c13 -11 20 -23 16 -27 -4 -4 -10 -1 -12 6 -3 6 -16 12
-30 12 -30 0 -27 -20 5 -35 12 -5 22 -14 22 -20 0 -5 5 -3 11 5 9 12 10 12 5
-3 -3 -10 -6 -23 -6 -28 0 -5 -4 -9 -10 -9 -5 0 -7 7 -4 15 4 10 0 15 -11 15
-14 0 -15 -6 -10 -32 9 -42 13 -48 28 -42 13 5 112 11 195 13 29 1 51 4 48 9
-2 4 14 6 37 5 23 -2 61 -4 85 -5 41 -1 62 -18 22 -18 -11 0 -20 -4 -20 -8 0
-5 20 -9 45 -9 25 0 45 4 45 9 0 4 -8 8 -18 8 -9 0 -23 9 -30 20 -7 11 -17 20
-23 20 -11 0 -39 25 -39 34 0 12 28 6 40 -9 7 -8 17 -12 23 -8 6 3 7 1 3 -5
-8 -13 24 -32 53 -32 16 0 19 7 19 45 0 35 -4 45 -19 50 -10 4 -24 15 -29 26
-9 15 -22 19 -65 19 -30 0 -66 -5 -79 -12 -20 -8 -36 -8 -67 1 -42 13 -65 7
-39 -9 21 -14 3 -12 -22 1 -18 10 -20 9 -15 -5 5 -13 0 -12 -32 6 -24 13 -44
19 -56 14 -17 -6 -15 -9 13 -26 18 -11 32 -24 32 -30 0 -14 -16 -13 -32 3 -32
31 -72 57 -87 57 -12 -1 -10 -5 8 -21z"/>
</g>
</svg>
